<svg width="41" height="13" viewBox="0 0 41 13" fill="none" xmlns="http://www.w3.org/2000/svg">
<path d="M6.02344 1.63281L2.25781 12H0.71875L5.05469 0.625H6.04688L6.02344 1.63281ZM9.17969 12L5.40625 1.63281L5.38281 0.625H6.375L10.7266 12H9.17969ZM8.98438 7.78906V9.02344H2.59375V7.78906H8.98438ZM18.6172 0.625H20.1172V8.32031C20.1172 9.17448 19.9271 9.88542 19.5469 10.4531C19.1667 11.0208 18.6615 11.4479 18.0312 11.7344C17.4062 12.0156 16.7266 12.1562 15.9922 12.1562C15.2214 12.1562 14.5234 12.0156 13.8984 11.7344C13.2786 11.4479 12.7865 11.0208 12.4219 10.4531C12.0625 9.88542 11.8828 9.17448 11.8828 8.32031V0.625H13.375V8.32031C13.375 8.91406 13.4844 9.40365 13.7031 9.78906C13.9219 10.1745 14.2266 10.4609 14.6172 10.6484C15.013 10.8359 15.4714 10.9297 15.9922 10.9297C16.5182 10.9297 16.9766 10.8359 17.3672 10.6484C17.763 10.4609 18.0703 10.1745 18.2891 9.78906C18.5078 9.40365 18.6172 8.91406 18.6172 8.32031V0.625ZM26.6875 0.625V12H25.2031V0.625H26.6875ZM30.3438 0.625V1.85938H21.5547V0.625H30.3438ZM40.5703 5.95312V6.67188C40.5703 7.52604 40.4635 8.29167 40.25 8.96875C40.0365 9.64583 39.7292 10.2214 39.3281 10.6953C38.9271 11.1693 38.4453 11.5312 37.8828 11.7812C37.3255 12.0312 36.7005 12.1562 36.0078 12.1562C35.3359 12.1562 34.7188 12.0312 34.1562 11.7812C33.599 11.5312 33.1146 11.1693 32.7031 10.6953C32.2969 10.2214 31.9818 9.64583 31.7578 8.96875C31.5339 8.29167 31.4219 7.52604 31.4219 6.67188V5.95312C31.4219 5.09896 31.5312 4.33594 31.75 3.66406C31.974 2.98698 32.2891 2.41146 32.6953 1.9375C33.1016 1.45833 33.5833 1.09375 34.1406 0.84375C34.7031 0.59375 35.3203 0.46875 35.9922 0.46875C36.6849 0.46875 37.3099 0.59375 37.8672 0.84375C38.4297 1.09375 38.9115 1.45833 39.3125 1.9375C39.7188 2.41146 40.0286 2.98698 40.2422 3.66406C40.4609 4.33594 40.5703 5.09896 40.5703 5.95312ZM39.0781 6.67188V5.9375C39.0781 5.26042 39.0078 4.66146 38.8672 4.14062C38.7318 3.61979 38.5312 3.18229 38.2656 2.82812C38 2.47396 37.6745 2.20573 37.2891 2.02344C36.9089 1.84115 36.4766 1.75 35.9922 1.75C35.5234 1.75 35.099 1.84115 34.7188 2.02344C34.3438 2.20573 34.0208 2.47396 33.75 2.82812C33.4844 3.18229 33.2786 3.61979 33.1328 4.14062C32.987 4.66146 32.9141 5.26042 32.9141 5.9375V6.67188C32.9141 7.35417 32.987 7.95833 33.1328 8.48438C33.2786 9.00521 33.487 9.44531 33.7578 9.80469C34.0339 10.1589 34.3594 10.4271 34.7344 10.6094C35.1146 10.7917 35.5391 10.8828 36.0078 10.8828C36.4974 10.8828 36.9323 10.7917 37.3125 10.6094C37.6927 10.4271 38.013 10.1589 38.2734 9.80469C38.5391 9.44531 38.7396 9.00521 38.875 8.48438C39.0104 7.95833 39.0781 7.35417 39.0781 6.67188Z" fill="url(#paint0_linear_71_541)"/>
<defs>
<linearGradient id="paint0_linear_71_541" x1="21" y1="-3" x2="21" y2="16" gradientUnits="userSpaceOnUse">
<stop stop-color="#848184"/>
<stop offset="1" stop-color="#DADADA"/>
</linearGradient>
</defs>
</svg>
