<svg width="36" height="38" viewBox="0 0 36 38" fill="none" xmlns="http://www.w3.org/2000/svg">
<g id="iconClock">
<path id="Vector" d="M23.0375 26.2042L17.4167 20.5833V12.6667H20.5833V19.2771L25.2542 23.9479L23.0375 26.2042ZM17.4167 9.5V6.33333H20.5833V9.5H17.4167ZM28.5 20.5833V17.4167H31.6667V20.5833H28.5ZM17.4167 31.6667V28.5H20.5833V31.6667H17.4167ZM6.33333 20.5833V17.4167H9.5V20.5833H6.33333ZM19 34.8333C16.8097 34.8333 14.7514 34.4174 12.825 33.5857C10.8986 32.7539 9.22291 31.626 7.79791 30.2021C6.37291 28.7771 5.24505 27.1014 4.41433 25.175C3.58361 23.2486 3.16772 21.1903 3.16666 19C3.16666 16.8097 3.58255 14.7514 4.41433 12.825C5.24611 10.8986 6.37397 9.22291 7.79791 7.79791C9.22291 6.37291 10.8986 5.24505 12.825 4.41433C14.7514 3.58361 16.8097 3.16772 19 3.16666C21.1903 3.16666 23.2486 3.58255 25.175 4.41433C27.1014 5.24611 28.7771 6.37397 30.2021 7.79791C31.6271 9.22291 32.7555 10.8986 33.5872 12.825C34.419 14.7514 34.8344 16.8097 34.8333 19C34.8333 21.1903 34.4174 23.2486 33.5857 25.175C32.7539 27.1014 31.626 28.7771 30.2021 30.2021C28.7771 31.6271 27.1014 32.7555 25.175 33.5872C23.2486 34.419 21.1903 34.8344 19 34.8333ZM19 31.6667C22.5361 31.6667 25.5312 30.4396 27.9854 27.9854C30.4396 25.5312 31.6667 22.5361 31.6667 19C31.6667 15.4639 30.4396 12.4687 27.9854 10.0146C25.5312 7.56041 22.5361 6.33333 19 6.33333C15.4639 6.33333 12.4687 7.56041 10.0146 10.0146C7.56041 12.4687 6.33333 15.4639 6.33333 19C6.33333 22.5361 7.56041 25.5312 10.0146 27.9854C12.4687 30.4396 15.4639 31.6667 19 31.6667Z" fill="url(#paint0_linear_72_2062)" stroke="#1E1E1E"/>
</g>
<defs>
<linearGradient id="paint0_linear_72_2062" x1="19" y1="3.16666" x2="19" y2="34.8333" gradientUnits="userSpaceOnUse">
<stop stop-color="#27D71C"/>
<stop offset="1" stop-color="#ABE605"/>
</linearGradient>
</defs>
</svg>
