<svg width="22" height="20" viewBox="0 0 22 20" fill="none" xmlns="http://www.w3.org/2000/svg">
<g id="Group">
<path id="Vector" d="M13.8853 1.20447C15.711 0.785052 17.976 0.806017 21.0583 1.62168C21.5895 1.76223 21.9123 2.33198 21.7796 2.89425C21.6468 3.45652 21.1087 3.79839 20.5775 3.65784C17.7118 2.89952 15.7638 2.92061 14.3058 3.25555C12.8433 3.59151 11.792 4.25785 10.6782 4.97839L10.5948 5.03237C9.5212 5.7274 8.33234 6.49705 6.76165 6.77413C5.13249 7.06151 3.20799 6.80744 0.623382 5.71291C0.115064 5.49765 -0.132172 4.88692 0.0711775 4.3488C0.274521 3.81069 0.85145 3.54896 1.35977 3.76423C3.73174 4.76871 5.27684 4.90829 6.43576 4.70386C7.61236 4.49631 8.50937 3.92174 9.64433 3.18751C10.761 2.4651 12.064 1.62286 13.8853 1.20447Z" fill="url(#paint0_linear_71_270)"/>
<path id="Vector_2" d="M21.0583 5.8193C17.976 5.00365 15.711 4.98269 13.8853 5.4021C12.064 5.82049 10.761 6.66272 9.64433 7.38514C8.50937 8.11937 7.61236 8.69394 6.43576 8.90149C5.27684 9.10588 3.73174 8.96629 1.35977 7.96186C0.85145 7.7466 0.274521 8.00831 0.0711775 8.54646C-0.132172 9.08453 0.115064 9.69529 0.623382 9.91052C3.20799 11.0051 5.13249 11.2591 6.76165 10.9717C8.33234 10.6946 9.5212 9.92504 10.5948 9.23001L10.6782 9.17605C11.792 8.45546 12.8433 7.78914 14.3058 7.45318C15.7638 7.11824 17.7118 7.09716 20.5775 7.85546C21.1087 7.99602 21.6468 7.65415 21.7796 7.09188C21.9123 6.52961 21.5895 5.95985 21.0583 5.8193Z" fill="url(#paint1_linear_71_270)"/>
<path id="Vector_3" fill-rule="evenodd" clip-rule="evenodd" d="M17.8439 8.32672C17.4997 8.32672 17.2129 8.51534 17.0128 8.80073C16.9425 8.90151 16.78 9.13735 16.5642 9.46745C16.2771 9.90643 15.8929 10.5165 15.5069 11.1974C15.1229 11.8749 14.7267 12.6412 14.4235 13.3899C14.1332 14.1069 13.8777 14.8854 13.8787 15.6747C13.8794 15.8962 13.9043 16.1188 13.9386 16.3369C13.9959 16.7009 14.1123 17.202 14.355 17.7159C14.5997 18.234 14.9822 18.7839 15.5746 19.202C16.1733 19.6244 16.9269 19.8702 17.8439 19.8702C18.7609 19.8702 19.5145 19.6244 20.1131 19.202C20.7055 18.7839 21.0882 18.234 21.3328 17.716C21.5755 17.202 21.692 16.7009 21.7493 16.337C21.7837 16.1186 21.809 15.8954 21.8093 15.6736C21.8096 14.8844 21.5547 14.107 21.2643 13.3899C20.9613 12.6412 20.565 11.8749 20.181 11.1974C19.7951 10.5165 19.4107 9.90643 19.1236 9.46745C18.9078 9.13735 18.7452 8.90151 18.6751 8.80073C18.4749 8.51534 18.188 8.32672 17.8439 8.32672ZM19.4421 14.2167C19.1876 13.588 18.8403 12.9113 18.4809 12.2772C18.2623 11.8916 18.0431 11.5284 17.8439 11.2099C17.6448 11.5284 17.4256 11.8916 17.207 12.2772C16.8476 12.9113 16.5004 13.588 16.2459 14.2167L16.2314 14.2522C16.0562 14.6845 15.8492 15.1955 15.8615 15.673C15.8734 16.0507 15.9693 16.4405 16.1284 16.7773C16.2554 17.0464 16.4305 17.2835 16.6744 17.4557C16.9123 17.6235 17.2739 17.7713 17.8439 17.7713C18.4139 17.7713 18.7756 17.6235 19.0134 17.4557C19.2574 17.2835 19.4324 17.0463 19.5595 16.7773C19.7186 16.4405 19.8145 16.0507 19.8264 15.6729C19.8388 15.1956 19.6317 14.6846 19.4565 14.2525L19.4421 14.2167Z" fill="url(#paint2_linear_71_270)"/>
<path id="Vector_4" d="M13.0159 9.90904C13.7696 9.65016 14.3474 10.4826 13.993 11.2328C13.8311 11.5756 13.649 11.8674 13.287 12.0031C12.3183 12.3662 11.516 12.8775 10.6782 13.4195L10.5948 13.4735C9.52119 14.1685 8.33234 14.9381 6.76164 15.2152C5.13249 15.5026 3.208 15.2485 0.623381 14.154C0.115062 13.9387 -0.132169 13.328 0.0711759 12.7899C0.274529 12.2517 0.851448 11.99 1.35978 12.2053C3.73174 13.2097 5.27685 13.3493 6.43576 13.1449C7.61236 12.9374 8.50937 12.3628 9.64431 11.6286C10.7229 10.9308 11.8329 10.3154 13.0159 9.90904Z" fill="url(#paint3_linear_71_270)"/>
</g>
<defs>
<linearGradient id="paint0_linear_71_270" x1="10.9047" y1="0.935089" x2="10.9047" y2="6.88348" gradientUnits="userSpaceOnUse">
<stop stop-color="#848184"/>
<stop offset="1" stop-color="#DADADA"/>
</linearGradient>
<linearGradient id="paint1_linear_71_270" x1="10.9047" y1="5.13272" x2="10.9047" y2="11.0811" gradientUnits="userSpaceOnUse">
<stop stop-color="#848184"/>
<stop offset="1" stop-color="#DADADA"/>
</linearGradient>
<linearGradient id="paint2_linear_71_270" x1="17.844" y1="8.32672" x2="17.844" y2="19.8702" gradientUnits="userSpaceOnUse">
<stop stop-color="#848184"/>
<stop offset="1" stop-color="#DADADA"/>
</linearGradient>
<linearGradient id="paint3_linear_71_270" x1="7.04999" y1="9.86081" x2="7.04999" y2="15.3245" gradientUnits="userSpaceOnUse">
<stop stop-color="#848184"/>
<stop offset="1" stop-color="#DADADA"/>
</linearGradient>
</defs>
</svg>
