<svg width="29" height="28" viewBox="0 0 29 28" fill="none" xmlns="http://www.w3.org/2000/svg">
<path d="M14.575 0C14.9457 0 15.3011 0.147237 15.5632 0.40932C15.8253 0.671403 15.9725 1.02686 15.9725 1.39751V2.79501C15.9725 3.16565 15.8253 3.52112 15.5632 3.7832C15.3011 4.04528 14.9457 4.19252 14.575 4.19252C14.2044 4.19252 13.8489 4.04528 13.5869 3.7832C13.3248 3.52112 13.1775 3.16565 13.1775 2.79501V1.39751C13.1775 1.02686 13.3248 0.671403 13.5869 0.40932C13.8489 0.147237 14.2044 0 14.575 0ZM4.50321 3.90324C4.76528 3.64124 5.12068 3.49407 5.49125 3.49407C5.86182 3.49407 6.21721 3.64124 6.47928 3.90324L7.87679 5.30074C8.13136 5.56432 8.27222 5.91733 8.26904 6.28375C8.26585 6.65017 8.11888 7.00068 7.85977 7.25979C7.60066 7.5189 7.25015 7.66588 6.88373 7.66906C6.5173 7.67224 6.16429 7.53138 5.90072 7.27682L4.50321 5.87931C4.24122 5.61724 4.09404 5.26184 4.09404 4.89127C4.09404 4.5207 4.24122 4.16531 4.50321 3.90324ZM24.6469 3.90324C24.9089 4.16531 25.056 4.5207 25.056 4.89127C25.056 5.26184 24.9089 5.61724 24.6469 5.87931L23.2494 7.27682C23.1204 7.41029 22.9662 7.51676 22.7957 7.59C22.6252 7.66324 22.4419 7.70179 22.2563 7.70341C22.0707 7.70502 21.8867 7.66966 21.715 7.59939C21.5432 7.52912 21.3872 7.42535 21.256 7.29414C21.1248 7.16292 21.021 7.00689 20.9507 6.83514C20.8804 6.66339 20.8451 6.47937 20.8467 6.29381C20.8483 6.10825 20.8869 5.92487 20.9601 5.75437C21.0333 5.58387 21.1398 5.42966 21.2733 5.30074L22.6708 3.90324C22.9329 3.64124 23.2883 3.49407 23.6588 3.49407C24.0294 3.49407 24.3848 3.64124 24.6469 3.90324ZM0.599976 13.9751C0.599976 13.6044 0.747212 13.249 1.0093 12.9869C1.27138 12.7248 1.62684 12.5776 1.99748 12.5776H3.39499C3.76563 12.5776 4.12109 12.7248 4.38317 12.9869C4.64526 13.249 4.79249 13.6044 4.79249 13.9751C4.79249 14.3457 4.64526 14.7012 4.38317 14.9633C4.12109 15.2253 3.76563 15.3726 3.39499 15.3726H1.99748C1.62684 15.3726 1.27138 15.2253 1.0093 14.9633C0.747212 14.7012 0.599976 14.3457 0.599976 13.9751ZM24.3576 13.9751C24.3576 13.6044 24.5048 13.249 24.7669 12.9869C25.029 12.7248 25.3845 12.5776 25.7551 12.5776H27.1526C27.5232 12.5776 27.8787 12.7248 28.1408 12.9869C28.4029 13.249 28.5501 13.6044 28.5501 13.9751C28.5501 14.3457 28.4029 14.7012 28.1408 14.9633C27.8787 15.2253 27.5232 15.3726 27.1526 15.3726H25.7551C25.3845 15.3726 25.029 15.2253 24.7669 14.9633C24.5048 14.7012 24.3576 14.3457 24.3576 13.9751Z" fill="url(#paint0_linear_174_299)"/>
<path d="M14.575 8.22719C13.0628 8.22719 11.6125 8.81856 10.5432 9.8712C9.47392 10.9239 8.87319 12.3516 8.87319 13.8402C8.87319 15.3289 9.47392 16.7566 10.5432 17.8092C11.6125 18.8619 13.0628 19.4532 14.575 19.4532C16.0872 19.4532 17.5375 18.8619 18.6068 17.8092C19.6761 16.7566 20.2768 15.3289 20.2768 13.8402C20.2768 12.3516 19.6761 10.9239 18.6068 9.8712C17.5375 8.81856 16.0872 8.22719 14.575 8.22719ZM6.02228 13.8402C6.02249 12.3623 6.41786 10.9105 7.16866 9.63073C7.91945 8.35093 8.99922 7.28823 10.2994 6.54942C11.5996 5.81061 13.0745 5.42173 14.5758 5.42186C16.077 5.42199 17.5518 5.81113 18.8519 6.55016C20.152 7.2892 21.2316 8.35209 21.9821 9.63202C22.7327 10.9119 23.1278 12.3638 23.1278 13.8417C23.1277 15.3196 22.7325 16.7714 21.9818 18.0513C21.2312 19.3312 20.1515 20.394 18.8514 21.1329V23.663C18.8514 24.7795 18.4008 25.8503 17.5989 26.6398C16.7969 27.4293 15.7092 27.8728 14.575 27.8728C13.4409 27.8728 12.3531 27.4293 11.5512 26.6398C10.7492 25.8503 10.2986 24.7795 10.2986 23.663V21.1329C8.9981 20.3941 7.91814 19.3311 7.16744 18.0509C6.41674 16.7707 6.02178 15.3184 6.02228 13.8402ZM13.1496 22.1433V23.663C13.1496 24.0352 13.2997 24.3921 13.5671 24.6553C13.8344 24.9184 14.197 25.0663 14.575 25.0663C14.9531 25.0663 15.3156 24.9184 15.583 24.6553C15.8503 24.3921 16.0005 24.0352 16.0005 23.663V22.1433C15.0568 22.2995 14.0932 22.2995 13.1496 22.1433Z" fill="url(#paint1_linear_174_299)"/>
<defs>
<linearGradient id="paint0_linear_174_299" x1="14.575" y1="0" x2="14.575" y2="15.3726" gradientUnits="userSpaceOnUse">
<stop stop-color="#27D71C"/>
<stop offset="1" stop-color="#ABE605"/>
</linearGradient>
<linearGradient id="paint1_linear_174_299" x1="14.575" y1="5.42186" x2="14.575" y2="27.8728" gradientUnits="userSpaceOnUse">
<stop stop-color="#27D71C"/>
<stop offset="1" stop-color="#ABE605"/>
</linearGradient>
</defs>
</svg>
