<svg width="29" height="28" viewBox="0 0 29 28" fill="none" xmlns="http://www.w3.org/2000/svg">
<path d="M13.7404 0.294972C13.9861 0.103795 14.2886 0 14.6 0C14.9113 0 15.2138 0.103795 15.4596 0.294972L26.9788 9.25497C27.4839 9.64795 27.8926 10.1512 28.1736 10.7262C28.4546 11.3013 28.6004 11.9329 28.6 12.573V25.201C28.6 25.9436 28.305 26.6558 27.7799 27.1809C27.2548 27.706 26.5426 28.001 25.8 28.001H20.2C19.4574 28.001 18.7452 27.706 18.2201 27.1809C17.695 26.6558 17.4 25.9436 17.4 25.201V16.801H11.8V25.201C11.8 25.9436 11.505 26.6558 10.9799 27.1809C10.4548 27.706 9.74258 28.001 8.99998 28.001H3.39998C2.65737 28.001 1.94518 27.706 1.42008 27.1809C0.894975 26.6558 0.599976 25.9436 0.599976 25.201V12.573C0.599976 11.2738 1.19918 10.053 2.22398 9.25497L13.7404 0.294972ZM14.6 3.17337L3.94038 11.4642C3.77161 11.5955 3.63516 11.7636 3.54148 11.9558C3.44781 12.1481 3.3994 12.3592 3.39998 12.573V25.201H8.99998V16.801C8.99998 16.0584 9.29498 15.3462 9.82008 14.8211C10.3452 14.296 11.0574 14.001 11.8 14.001H17.4C18.1426 14.001 18.8548 14.296 19.3799 14.8211C19.905 15.3462 20.2 16.0584 20.2 16.801V25.201H25.8V12.573C25.8006 12.3592 25.7521 12.1481 25.6585 11.9558C25.5648 11.7636 25.4283 11.5955 25.2596 11.4642L14.6 3.17617V3.17337Z" fill="url(#paint0_linear_150_198)"/>
<defs>
<linearGradient id="paint0_linear_150_198" x1="14.6" y1="0" x2="14.6" y2="28.001" gradientUnits="userSpaceOnUse">
<stop stop-color="#848184"/>
<stop offset="1" stop-color="#DADADA"/>
</linearGradient>
</defs>
</svg>
