<svg width="22" height="27" viewBox="0 0 22 27" fill="none" xmlns="http://www.w3.org/2000/svg">
<g id="Property 1=aktiv">
<path id="Vector" d="M6.19051 17.11L6.23079 17.102V17.0609V8.71686H7.36695V17.0609V17.102L7.40724 17.11C8.96408 17.4184 10.1483 18.8914 10.1483 20.6672C10.1483 22.6684 8.64524 24.284 6.79887 24.284C4.95251 24.284 3.44944 22.6684 3.44944 20.6672C3.44944 18.8914 4.63367 17.4184 6.19051 17.11ZM4.35018 15.3349L4.37656 15.3207V15.2908V2.66675C4.37656 1.21788 5.46452 0.05 6.79887 0.05C8.13316 0.05 9.22119 1.21789 9.22119 2.66675V15.2907V15.3207L9.24757 15.3348C11.0623 16.3076 12.3116 18.3291 12.3116 20.6672C12.3116 23.9571 9.83993 26.6174 6.79887 26.6174C3.75776 26.6174 1.28616 23.9571 1.28616 20.6672C1.28616 18.3291 2.53535 16.3077 4.35018 15.3349ZM12.1901 5.82475L12.1532 5.79097L12.1901 5.82475C12.9694 4.97386 13.9802 4.54787 15.2269 4.54787C15.9874 4.54787 16.6276 4.65197 17.1491 4.85835V6.64877C16.6328 6.34274 16.0493 6.19012 15.3999 6.19012C14.6482 6.19012 14.0379 6.44524 13.5737 6.95709L13.6107 6.99068L13.5737 6.95709C13.1096 7.46897 12.8802 8.16006 12.8802 9.02467C12.8802 9.85404 13.0966 10.5206 13.5344 11.0187C13.9729 11.5176 14.5636 11.7658 15.3008 11.7658C15.9704 11.7658 16.5868 11.6119 17.1491 11.3036V12.9688C16.5792 13.2605 15.8355 13.4081 14.915 13.4081C13.6996 13.4081 12.7496 13.0215 12.0589 12.2522L12.0216 12.2856L12.0588 12.2522C11.367 11.4817 11.0189 10.4536 11.0189 9.16274C11.0189 7.78694 11.4105 6.67589 12.1901 5.82475ZM20.4972 5.56967L20.4972 5.56966C20.3543 5.40388 20.1771 5.31896 19.9681 5.31896C19.7591 5.31896 19.5818 5.40387 19.439 5.56967L19.4769 5.6023L19.439 5.56967C19.2964 5.73521 19.2259 5.93699 19.2259 6.17205C19.2259 6.40712 19.2964 6.61064 19.4386 6.77983L19.4769 6.74767L19.4386 6.77984C19.5813 6.94956 19.7586 7.03681 19.9681 7.03681C20.1743 7.03681 20.3505 6.94935 20.4947 6.78009L20.4566 6.74767L20.4947 6.78009C20.6388 6.6109 20.7104 6.4073 20.7104 6.17205C20.7104 5.93699 20.6398 5.73521 20.4972 5.56967ZM18.8575 5.0159L18.8216 4.98108L18.8575 5.01589C19.1605 4.70348 19.5285 4.54787 19.9645 4.54787C20.398 4.54787 20.7667 4.70344 21.0735 5.0161C21.38 5.32849 21.5333 5.71142 21.5333 6.16819C21.5333 6.62627 21.38 7.01297 21.0732 7.33133C20.7663 7.6497 20.3977 7.80797 19.9645 7.80797C19.5288 7.80797 19.1609 7.64966 18.8578 7.33153C18.5545 7.01321 18.4028 6.62644 18.4028 6.16819C18.4028 5.71125 18.5545 5.32825 18.8575 5.0159ZM5.51272 16.1574C3.72136 16.7501 2.42232 18.5466 2.42232 20.6672C2.42232 23.2686 4.37827 25.384 6.79887 25.384C9.21948 25.384 11.1754 23.2686 11.1754 20.6672C11.1754 18.5466 9.87633 16.7501 8.08503 16.1574V2.66675C8.08503 1.90634 7.51265 1.28337 6.79887 1.28337C6.08503 1.28337 5.51272 1.90634 5.51272 2.66675V16.1574ZM3.65848 2.04999V2.61668H0.05V2.04999H3.65848ZM3.65848 4.05005V4.61674H1.28616V4.05005H3.65848ZM3.65848 6.05011V6.6168H0.05V6.05011H3.65848ZM3.65848 8.05017V8.61686H1.28616V8.05017H3.65848ZM3.65848 10.0502V10.6169H0.05V10.0502H3.65848ZM3.65848 12.0503V12.617H1.28616V12.0503H3.65848ZM3.65848 14.0504V14.617H0.05V14.0504H3.65848Z" fill="url(#paint0_linear_46_2315)" stroke="black" stroke-width="0.1"/>
</g>
<defs>
<linearGradient id="paint0_linear_46_2315" x1="10.7917" y1="0" x2="10.7917" y2="26.6674" gradientUnits="userSpaceOnUse">
<stop stop-color="#27D71C"/>
<stop offset="1" stop-color="#ABE605"/>
</linearGradient>
</defs>
</svg>
