<svg width="27" height="27" viewBox="0 0 27 27" fill="none" xmlns="http://www.w3.org/2000/svg">
<g id="Property 1=light">
<path id="Vector" fill-rule="evenodd" clip-rule="evenodd" d="M18.0151 15.7729C18.0151 17.8957 19.736 19.6166 21.8588 19.6166C23.9815 19.6166 25.7024 17.8957 25.7024 15.7729H18.0151Z" stroke="white" stroke-width="2.5" stroke-linejoin="round"/>
<path id="Vector_2" fill-rule="evenodd" clip-rule="evenodd" d="M11.9293 18.015C9.80655 18.015 8.08571 19.7359 8.08571 21.8587C8.08571 23.9814 9.80655 25.7023 11.9293 25.7023V18.015Z" stroke="white" stroke-width="2.5" stroke-linejoin="round"/>
<circle id="Vector_3" cx="13.8511" cy="13.8512" r="1.92181" fill="white"/>
<path id="Vector_4" fill-rule="evenodd" clip-rule="evenodd" d="M9.68726 11.9294C9.68726 9.80658 7.96641 8.08574 5.84364 8.08574C3.72087 8.08574 2.00003 9.80658 2.00003 11.9294L9.68726 11.9294Z" stroke="white" stroke-width="2.5" stroke-linejoin="round"/>
<path id="Vector_5" fill-rule="evenodd" clip-rule="evenodd" d="M15.7729 9.68723C17.8957 9.68723 19.6166 7.96638 19.6166 5.84361C19.6166 3.72084 17.8957 2 15.7729 2V9.68723Z" stroke="white" stroke-width="2.5" stroke-linejoin="round"/>
</g>
</svg>
