<svg width="22" height="28" viewBox="0 0 22 28" fill="none" xmlns="http://www.w3.org/2000/svg">
<g id="Property 1=Inaktiv">
<path id="Vector" d="M6.19051 17.7774L6.23079 17.7694V17.7283V9.38428H7.36695V17.7283V17.7694L7.40724 17.7774C8.96408 18.0859 10.1483 19.5589 10.1483 21.3346C10.1483 23.3358 8.64524 24.9514 6.79887 24.9514C4.95251 24.9514 3.44944 23.3358 3.44944 21.3346C3.44944 19.5589 4.63367 18.0858 6.19051 17.7774ZM4.35018 16.0023L4.37656 15.9881V15.9582V3.33417C4.37656 1.8853 5.46452 0.717419 6.79887 0.717419C8.13316 0.717419 9.22119 1.88531 9.22119 3.33417V15.9581V15.9881L9.24757 16.0022C11.0623 16.975 12.3116 18.9965 12.3116 21.3346C12.3116 24.6245 9.83993 27.2848 6.79887 27.2848C3.75776 27.2848 1.28616 24.6245 1.28616 21.3346C1.28616 18.9965 2.53535 16.9751 4.35018 16.0023ZM12.1901 6.49217L12.1532 6.45839L12.1901 6.49216C12.9694 5.64128 13.9802 5.21529 15.2269 5.21529C15.9874 5.21529 16.6276 5.31939 17.1491 5.52577V7.31619C16.6328 7.01016 16.0493 6.85754 15.3999 6.85754C14.6482 6.85754 14.0379 7.11266 13.5737 7.62451L13.6107 7.6581L13.5737 7.62451C13.1096 8.13638 12.8802 8.82748 12.8802 9.69209C12.8802 10.5215 13.0966 11.188 13.5344 11.6861C13.9729 12.1851 14.5636 12.4332 15.3008 12.4332C15.9704 12.4332 16.5868 12.2793 17.1491 11.971V13.6362C16.5792 13.9279 15.8355 14.0756 14.915 14.0756C13.6996 14.0756 12.7496 13.6889 12.0589 12.9196L12.0216 12.953L12.0588 12.9196C11.367 12.1491 11.0189 11.1211 11.0189 9.83016C11.0189 8.45436 11.4105 7.34331 12.1901 6.49217ZM20.4972 6.23709L20.4972 6.23708C20.3543 6.0713 20.1771 5.98638 19.9681 5.98638C19.7591 5.98638 19.5818 6.07129 19.439 6.23709L19.4769 6.26972L19.439 6.23709C19.2964 6.40263 19.2259 6.60441 19.2259 6.83947C19.2259 7.07454 19.2964 7.27806 19.4386 7.44725L19.4769 7.41509L19.4386 7.44726C19.5813 7.61698 19.7586 7.70423 19.9681 7.70423C20.1743 7.70423 20.3505 7.61677 20.4947 7.44751L20.4566 7.41509L20.4947 7.4475C20.6388 7.27832 20.7104 7.07472 20.7104 6.83947C20.7104 6.60441 20.6398 6.40263 20.4972 6.23709ZM18.8575 5.68332L18.8216 5.6485L18.8575 5.68331C19.1605 5.3709 19.5285 5.21529 19.9645 5.21529C20.398 5.21529 20.7667 5.37086 21.0735 5.68352C21.38 5.99591 21.5333 6.37884 21.5333 6.8356C21.5333 7.29369 21.38 7.68039 21.0732 7.99875C20.7663 8.31712 20.3977 8.47539 19.9645 8.47539C19.5288 8.47539 19.1609 8.31708 18.8578 7.99895C18.5545 7.68063 18.4028 7.29386 18.4028 6.8356C18.4028 6.37867 18.5545 5.99567 18.8575 5.68332ZM5.51272 16.8248C3.72136 17.4175 2.42232 19.214 2.42232 21.3346C2.42232 23.936 4.37827 26.0514 6.79887 26.0514C9.21948 26.0514 11.1754 23.936 11.1754 21.3346C11.1754 19.214 9.87633 17.4175 8.08503 16.8248V3.33417C8.08503 2.57376 7.51265 1.95079 6.79887 1.95079C6.08503 1.95079 5.51272 2.57376 5.51272 3.33417V16.8248ZM3.65848 2.71741V3.2841H0.05V2.71741H3.65848ZM3.65848 4.71747V5.28416H1.28616V4.71747H3.65848ZM3.65848 6.71753V7.28422H0.05V6.71753H3.65848ZM3.65848 8.71759V9.28428H1.28616V8.71759H3.65848ZM3.65848 10.7177V11.2843H0.05V10.7177H3.65848ZM3.65848 12.7177V13.2844H1.28616V12.7177H3.65848ZM3.65848 14.7178V15.2845H0.05V14.7178H3.65848Z" fill="url(#paint0_linear_46_2317)" stroke="black" stroke-width="0.1"/>
</g>
<defs>
<linearGradient id="paint0_linear_46_2317" x1="10.7917" y1="0.667419" x2="10.7917" y2="27.3348" gradientUnits="userSpaceOnUse">
<stop stop-color="#848184"/>
<stop offset="1" stop-color="#DADADA"/>
</linearGradient>
</defs>
</svg>
