<svg width="32" height="32" viewBox="0 0 32 32" fill="none" xmlns="http://www.w3.org/2000/svg">
<g id="iconVentStatus">
<path id="Vector" d="M1.69946 23.1993C1.7592 23.3181 1.86369 23.4083 1.98995 23.4501C2.11621 23.4919 2.25389 23.4818 2.3727 23.422C2.49152 23.3623 2.58174 23.2578 2.62351 23.1315C2.66528 23.0053 2.65519 22.8676 2.59545 22.7488C1.04121 19.6576 0.602077 16.1246 1.35228 12.747C2.10248 9.36946 3.996 6.35456 6.7127 4.21204C9.4294 2.06953 12.8026 0.930853 16.262 0.988533C19.7214 1.04621 23.0548 2.29671 25.6985 4.5286H23.446C23.3133 4.5286 23.186 4.58134 23.0921 4.67521C22.9982 4.76908 22.9455 4.8964 22.9455 5.02915C22.9455 5.16191 22.9982 5.28922 23.0921 5.3831C23.186 5.47697 23.3133 5.52971 23.446 5.52971H26.9875C27.0199 5.53341 27.0526 5.53341 27.0851 5.52971H27.1251L27.1777 5.51469L27.2252 5.48966C27.2391 5.48311 27.2525 5.47559 27.2653 5.46714C27.3201 5.43112 27.3669 5.38428 27.4029 5.32948C27.4106 5.31751 27.4173 5.30496 27.423 5.29194C27.4333 5.27633 27.4417 5.25952 27.448 5.24189C27.4553 5.22576 27.4612 5.20901 27.4655 5.19183C27.4655 5.17682 27.4655 5.1643 27.478 5.14929C27.4805 5.1168 27.4805 5.08417 27.478 5.05168V1.49273C27.478 1.35998 27.4253 1.23266 27.3314 1.13879C27.2375 1.04492 27.1102 0.992182 26.9775 0.992182C26.8447 0.992182 26.7174 1.04492 26.6235 1.13879C26.5296 1.23266 26.4769 1.35998 26.4769 1.49273V3.88789C23.672 1.46886 20.1154 0.0966759 16.4126 0.00491714C12.7098 -0.0868416 9.08963 1.1075 6.16835 3.38462C3.24706 5.66175 1.20523 8.88092 0.390429 12.4941C-0.424372 16.1073 0.0382195 19.8913 1.69946 23.2018V23.1993Z" fill="white"/>
<path id="Vector_2" d="M26.6145 26.6381C23.951 29.294 20.3887 30.855 16.6305 31.013C12.8724 31.171 9.19163 29.9145 6.31457 27.4915L8.56706 27.4915C8.69982 27.4915 8.82713 27.4388 8.92101 27.3449C9.01488 27.2511 9.06761 27.1237 9.06761 26.991C9.06761 26.8582 9.01488 26.7309 8.92101 26.637C8.82713 26.5432 8.69982 26.4904 8.56706 26.4904L5.03064 26.4904C4.99738 26.4866 4.96379 26.4866 4.93053 26.4904H4.89049L4.83793 26.5054L4.79288 26.5305C4.77874 26.5365 4.76531 26.544 4.75284 26.553C4.69748 26.5892 4.64985 26.636 4.61268 26.6906L4.59266 26.7282L4.56763 26.7782C4.56114 26.7944 4.55612 26.8112 4.55261 26.8283L4.5376 26.8708C4.53511 26.9033 4.53511 26.936 4.5376 26.9685V30.5249C4.5376 30.6577 4.59033 30.785 4.68421 30.8788C4.77808 30.9727 4.9054 31.0255 5.03815 31.0255C5.17091 31.0255 5.29823 30.9727 5.3921 30.8788C5.48597 30.785 5.53871 30.6577 5.53871 30.5249V28.1272C8.34232 30.5381 11.8937 31.9047 15.5902 31.9952C19.2867 32.0857 22.9007 30.8945 25.8189 28.6238C28.7372 26.353 30.7799 23.1426 31.6005 19.5371C32.4212 15.9317 31.9691 12.1535 30.3212 8.84338C30.2797 8.75998 30.2158 8.6898 30.1367 8.64073C30.0575 8.59165 29.9663 8.56562 29.8732 8.56557C29.7958 8.56565 29.7196 8.58364 29.6504 8.61813C29.5915 8.64762 29.539 8.68845 29.4959 8.73828C29.4528 8.78811 29.42 8.84596 29.3993 8.90851C29.3786 8.97105 29.3704 9.03707 29.3753 9.10277C29.3802 9.16847 29.398 9.23257 29.4277 9.29138C30.8428 12.1112 31.3326 15.3055 30.8276 18.4199C30.3225 21.5342 28.8483 24.41 26.6145 26.6381Z" fill="#5BDE46"/>
<path id="Vector_3" d="M9.866 15.8937C9.50564 15.7673 9.12665 15.7021 8.74476 15.701C7.94175 15.7081 7.16407 15.9829 6.53481 16.4818C5.49116 17.2852 4.87047 18.5391 4.95807 19.6754C5.01889 20.3324 5.22213 20.9683 5.55364 21.5389C5.88515 22.1094 6.33698 22.6008 6.87769 22.979C7.72113 23.5672 9.17023 24.1403 11.2926 23.5347C14.8515 22.516 15.5948 19.2124 15.755 17.8684C15.8126 17.8684 15.8727 17.8684 15.9327 17.8834C16.9338 18.9946 16.7411 19.7204 15.8952 22.1381C15.7041 22.6979 15.6578 23.2969 15.7606 23.8794C15.8635 24.4619 16.1121 25.0088 16.4833 25.4693C17.2817 26.5205 18.5356 27.1462 19.6719 27.0561C20.3289 26.9952 20.9648 26.792 21.5353 26.4605C22.1059 26.129 22.5973 25.6771 22.9755 25.1364C23.5637 24.293 24.1368 22.8439 23.5311 20.7215C22.5125 17.1601 19.2038 16.4193 17.8624 16.2591C17.8624 16.2015 17.8624 16.144 17.8774 16.0839C18.9886 15.0828 19.7144 15.273 22.1446 16.1189C22.7044 16.31 23.3034 16.3563 23.8859 16.2535C24.4683 16.1506 25.0153 15.902 25.4758 15.5308C26.5194 14.7274 27.1401 13.4735 27.0525 12.3373C26.9917 11.6802 26.7885 11.0443 26.457 10.4738C26.1255 9.90325 25.6736 9.41179 25.1329 9.03359C24.3474 8.49336 23.4132 8.21085 22.4599 8.2252C21.8671 8.22634 21.2774 8.31058 20.708 8.47548C17.1516 9.50161 16.4133 12.8178 16.2556 14.1568C16.2005 14.1568 16.143 14.1568 16.0854 14.1418C15.0843 13.0255 15.267 12.3022 16.1154 9.86952C16.3065 9.30976 16.3528 8.71072 16.25 8.12825C16.1471 7.54577 15.8985 6.99881 15.5273 6.53833C15.1802 6.06826 14.7324 5.68179 14.2167 5.40723C13.7009 5.13267 13.1302 4.97698 12.5465 4.95157C12.4756 4.94777 12.4046 4.94777 12.3337 4.95157C11.6767 5.0124 11.0408 5.21563 10.4703 5.54714C9.89973 5.87866 9.40827 6.33048 9.03008 6.8712C8.44192 7.71463 7.86879 9.16374 8.47446 11.2861C9.49809 14.86 12.8068 15.5984 14.1507 15.7585C14.1507 15.8161 14.1507 15.8737 14.1332 15.9337C13.0195 16.9298 12.2962 16.7396 9.866 15.8937ZM11.0173 22.5711C9.63825 22.9665 8.40438 22.8214 7.44832 22.1581C7.02763 21.8661 6.67544 21.486 6.41615 21.0444C6.15686 20.6027 5.99667 20.11 5.94666 19.6003C5.88659 18.8019 6.36462 17.8684 7.13798 17.2752C7.46688 17.0052 7.8592 16.8235 8.27785 16.7473C8.69651 16.6711 9.12769 16.7029 9.53063 16.8397C11.7506 17.6131 12.9769 18.0336 14.401 16.9924C14.5032 17.1573 14.6298 17.3058 14.7764 17.4329C14.7539 18.1587 14.3935 21.605 11.0173 22.5711ZM16.0053 16.8873C15.8321 16.8878 15.6625 16.8369 15.5182 16.7411C15.3739 16.6452 15.2612 16.5087 15.1945 16.3489C15.1277 16.189 15.1099 16.0129 15.1432 15.8429C15.1765 15.6729 15.2595 15.5165 15.3816 15.3937C15.5038 15.2708 15.6596 15.187 15.8295 15.1527C15.9993 15.1184 16.1755 15.1352 16.3357 15.2011C16.496 15.2669 16.6331 15.3788 16.7297 15.5226C16.8264 15.6664 16.8783 15.8356 16.8788 16.0088C16.8794 16.1239 16.8573 16.2381 16.8137 16.3446C16.7701 16.4512 16.7059 16.5481 16.6247 16.6297C16.5435 16.7113 16.447 16.7761 16.3407 16.8203C16.2344 16.8645 16.1204 16.8873 16.0053 16.8873ZM22.5676 20.9968C22.963 22.3759 22.8178 23.6097 22.1546 24.5658C21.8625 24.9865 21.4825 25.3387 21.0409 25.598C20.5992 25.8573 20.1065 26.0175 19.5968 26.0675C18.8009 26.1275 17.8649 25.6495 17.2717 24.8761C17.0017 24.5472 16.82 24.1549 16.7438 23.7363C16.6676 23.3176 16.6994 22.8864 16.8362 22.4835C17.6096 20.2635 18.03 19.0372 16.9889 17.6131C17.1544 17.5116 17.303 17.385 17.4294 17.2377C18.1577 17.2602 21.6015 17.6206 22.5676 20.9968ZM20.9933 9.44655C22.3724 9.05111 23.6062 9.19627 24.5623 9.85951C24.983 10.1516 25.3352 10.5316 25.5944 10.9733C25.8537 11.4149 26.0139 11.9076 26.0639 12.4173C26.124 13.2157 25.646 14.1493 24.8726 14.7424C24.5437 15.0124 24.1514 15.1941 23.7327 15.2703C23.3141 15.3465 22.8829 15.3147 22.48 15.1779C20.2575 14.4045 19.0312 13.9816 17.6046 15.0277C17.5042 14.8644 17.3792 14.7176 17.2342 14.5922C17.2567 13.8815 17.6071 10.4151 20.9933 9.44655ZM9.44303 11.0208C9.0476 9.64177 9.19276 8.4079 9.85599 7.45184C10.1481 7.03115 10.5281 6.67896 10.9697 6.41967C11.4114 6.16038 11.9041 6.00019 12.4138 5.95018C13.2097 5.89011 14.1457 6.36814 14.7389 7.1415C15.0089 7.4704 15.1906 7.86272 15.2668 8.28137C15.343 8.70003 15.3112 9.1312 15.1744 9.53415C14.401 11.7566 13.9781 12.983 15.0242 14.4095C14.8609 14.51 14.714 14.6349 14.5887 14.78C13.8804 14.7574 10.4116 14.4121 9.44303 11.0208Z" fill="white"/>
</g>
</svg>
