<svg width="22" height="19" viewBox="0 0 22 19" fill="none" xmlns="http://www.w3.org/2000/svg">
<g id="Group">
<path id="Vector" d="M13.8853 0.269385C15.711 -0.150038 17.976 -0.129072 21.0583 0.686588C21.5895 0.827139 21.9123 1.3969 21.7796 1.95916C21.6468 2.52143 21.1087 2.8633 20.5775 2.72275C17.7118 1.96443 15.7638 1.98552 14.3058 2.32046C12.8433 2.65643 11.792 3.32276 10.6782 4.0433L10.5948 4.09728C9.5212 4.79231 8.33234 5.56196 6.76165 5.83904C5.13249 6.12643 3.20799 5.87235 0.623382 4.77782C0.115064 4.56256 -0.132172 3.95183 0.0711775 3.41371C0.274521 2.8756 0.85145 2.61387 1.35977 2.82915C3.73174 3.83362 5.27684 3.9732 6.43576 3.76877C7.61236 3.56122 8.50937 2.98665 9.64433 2.25242C10.761 1.53001 12.064 0.687766 13.8853 0.269385Z" fill="url(#paint0_linear_71_342)"/>
<path id="Vector_2" d="M21.0583 4.88421C17.976 4.06856 15.711 4.0476 13.8853 4.46701C12.064 4.8854 10.761 5.72763 9.64433 6.45005C8.50937 7.18428 7.61236 7.75885 6.43576 7.9664C5.27684 8.17079 3.73174 8.0312 1.35977 7.02677C0.85145 6.81151 0.274521 7.07322 0.0711775 7.61137C-0.132172 8.14944 0.115064 8.7602 0.623382 8.97543C3.20799 10.07 5.13249 10.324 6.76165 10.0366C8.33234 9.75955 9.5212 8.98995 10.5948 8.29492L10.6782 8.24096C11.792 7.52037 12.8433 6.85405 14.3058 6.51809C15.7638 6.18315 17.7118 6.16207 20.5775 6.92038C21.1087 7.06093 21.6468 6.71906 21.7796 6.15679C21.9123 5.59452 21.5895 5.02476 21.0583 4.88421Z" fill="url(#paint1_linear_71_342)"/>
<path id="Vector_3" fill-rule="evenodd" clip-rule="evenodd" d="M17.8439 7.3916C17.4997 7.3916 17.2129 7.58022 17.0128 7.86561C16.9425 7.96639 16.78 8.20223 16.5642 8.53234C16.2771 8.97131 15.8929 9.58134 15.5069 10.2623C15.1229 10.9398 14.7267 11.7061 14.4235 12.4547C14.1332 13.1717 13.8777 13.9503 13.8787 14.7396C13.8794 14.9611 13.9043 15.1837 13.9386 15.4018C13.9959 15.7657 14.1123 16.2669 14.355 16.7808C14.5997 17.2989 14.9822 17.8488 15.5746 18.2669C16.1733 18.6893 16.9269 18.9351 17.8439 18.9351C18.7609 18.9351 19.5145 18.6893 20.1131 18.2669C20.7055 17.8488 21.0882 17.2989 21.3328 16.7809C21.5755 16.2669 21.692 15.7657 21.7493 15.4019C21.7837 15.1835 21.809 14.9603 21.8093 14.7385C21.8096 13.9492 21.5547 13.1719 21.2643 12.4547C20.9613 11.7061 20.565 10.9398 20.181 10.2623C19.7951 9.58134 19.4107 8.97131 19.1236 8.53234C18.9078 8.20223 18.7452 7.96639 18.6751 7.86561C18.4749 7.58022 18.188 7.3916 17.8439 7.3916ZM19.4421 13.2816C19.1876 12.6529 18.8403 11.9762 18.4809 11.3421C18.2623 10.9564 18.0431 10.5933 17.8439 10.2748C17.6448 10.5933 17.4256 10.9564 17.207 11.3421C16.8476 11.9762 16.5004 12.6529 16.2459 13.2816L16.2314 13.3171C16.0562 13.7494 15.8492 14.2604 15.8615 14.7379C15.8734 15.1155 15.9693 15.5054 16.1284 15.8422C16.2554 16.1113 16.4305 16.3484 16.6744 16.5206C16.9123 16.6884 17.2739 16.8362 17.8439 16.8362C18.4139 16.8362 18.7756 16.6884 19.0134 16.5206C19.2574 16.3484 19.4324 16.1112 19.5595 15.8422C19.7186 15.5054 19.8145 15.1155 19.8264 14.7378C19.8388 14.2605 19.6317 13.7495 19.4565 13.3173L19.4421 13.2816Z" fill="url(#paint2_linear_71_342)"/>
<path id="Vector_4" d="M13.0159 8.97395C13.7696 8.71507 14.3474 9.54748 13.993 10.2977C13.8311 10.6406 13.649 10.9323 13.287 11.068C12.3183 11.4311 11.516 11.9424 10.6782 12.4844L10.5948 12.5384C9.52119 13.2334 8.33234 14.003 6.76164 14.2801C5.13249 14.5675 3.208 14.3134 0.623381 13.2189C0.115062 13.0037 -0.132169 12.3929 0.0711759 11.8548C0.274529 11.3166 0.851448 11.0549 1.35978 11.2703C3.73174 12.2747 5.27685 12.4142 6.43576 12.2099C7.61236 12.0023 8.50937 11.4277 9.64431 10.6935C10.7229 9.99571 11.8329 9.38032 13.0159 8.97395Z" fill="url(#paint3_linear_71_342)"/>
</g>
<defs>
<linearGradient id="paint0_linear_71_342" x1="10.9047" y1="0" x2="10.9047" y2="5.94839" gradientUnits="userSpaceOnUse">
<stop stop-color="#27D71C"/>
<stop offset="1" stop-color="#ABE605"/>
</linearGradient>
<linearGradient id="paint1_linear_71_342" x1="10.9047" y1="4.19763" x2="10.9047" y2="10.146" gradientUnits="userSpaceOnUse">
<stop stop-color="#27D71C"/>
<stop offset="1" stop-color="#ABE605"/>
</linearGradient>
<linearGradient id="paint2_linear_71_342" x1="17.844" y1="7.3916" x2="17.844" y2="18.9351" gradientUnits="userSpaceOnUse">
<stop stop-color="#27D71C"/>
<stop offset="1" stop-color="#ABE605"/>
</linearGradient>
<linearGradient id="paint3_linear_71_342" x1="7.04999" y1="8.92572" x2="7.04999" y2="14.3894" gradientUnits="userSpaceOnUse">
<stop stop-color="#27D71C"/>
<stop offset="1" stop-color="#ABE605"/>
</linearGradient>
</defs>
</svg>
