<svg width="20" height="23" viewBox="0 0 20 23" fill="none" xmlns="http://www.w3.org/2000/svg">
<path fill-rule="evenodd" clip-rule="evenodd" d="M5.88235 3.99788C5.88235 3.53423 5.40043 3.23229 5.00367 3.47218C2.01264 5.28068 0 8.6631 0 12.5373C0 18.3157 4.47715 23 10 23C15.5228 23 20 18.3157 20 12.5373C20 8.93884 18.2637 5.76465 15.6197 3.88186C15.2249 3.60067 14.7059 3.90061 14.7059 4.38537V4.38537C14.7059 4.59852 14.8138 4.79611 14.9869 4.92043C17.3039 6.58417 18.8235 9.37508 18.8235 12.5373C18.8235 17.6359 14.8731 21.7691 10 21.7691C5.1269 21.7691 1.17647 17.6359 1.17647 12.5373C1.17647 9.13235 2.93837 6.15792 5.56033 4.55759C5.75651 4.43785 5.88235 4.22771 5.88235 3.99788V3.99788Z" fill="#D9D9D9"/>
<rect x="9" width="2" height="6" rx="1" fill="#D9D9D9"/>
</svg>
