<svg width="38" height="38" viewBox="0 0 38 38" fill="none" xmlns="http://www.w3.org/2000/svg">
<g id="Property 1=active">
<path id="Vector" d="M23.0375 26.2042L17.4166 20.5834V12.6667H20.5833V19.2771L25.2541 23.9479L23.0375 26.2042ZM17.4166 9.50002V6.33335H20.5833V9.50002H17.4166ZM28.5 20.5834V17.4167H31.6666V20.5834H28.5ZM17.4166 31.6667V28.5H20.5833V31.6667H17.4166ZM6.33329 20.5834V17.4167H9.49996V20.5834H6.33329ZM19 34.8334C16.8097 34.8334 14.7513 34.4175 12.825 33.5857C10.8986 32.7539 9.22288 31.6261 7.79788 30.2021C6.37288 28.7771 5.24502 27.1014 4.41429 25.175C3.58357 23.2486 3.16768 21.1903 3.16663 19C3.16663 16.8097 3.58252 14.7514 4.41429 12.825C5.24607 10.8986 6.37393 9.22294 7.79788 7.79794C9.22288 6.37294 10.8986 5.24508 12.825 4.41435C14.7513 3.58363 16.8097 3.16774 19 3.16669C21.1902 3.16669 23.2486 3.58258 25.175 4.41435C27.1013 5.24613 28.777 6.37399 30.202 7.79794C31.627 9.22294 32.7554 10.8986 33.5872 12.825C34.419 14.7514 34.8343 16.8097 34.8333 19C34.8333 21.1903 34.4174 23.2486 33.5856 25.175C32.7538 27.1014 31.626 28.7771 30.202 30.2021C28.777 31.6271 27.1013 32.7555 25.175 33.5873C23.2486 34.419 21.1902 34.8344 19 34.8334ZM19 31.6667C22.5361 31.6667 25.5312 30.4396 27.9854 27.9854C30.4395 25.5313 31.6666 22.5361 31.6666 19C31.6666 15.4639 30.4395 12.4688 27.9854 10.0146C25.5312 7.56044 22.5361 6.33335 19 6.33335C15.4638 6.33335 12.4687 7.56044 10.0145 10.0146C7.56038 12.4688 6.33329 15.4639 6.33329 19C6.33329 22.5361 7.56038 25.5313 10.0145 27.9854C12.4687 30.4396 15.4638 31.6667 19 31.6667Z" fill="url(#paint0_linear_72_2060)" stroke="#1E1E1E"/>
</g>
<defs>
<linearGradient id="paint0_linear_72_2060" x1="19" y1="3.16669" x2="19" y2="34.8334" gradientUnits="userSpaceOnUse">
<stop stop-color="#27D71C"/>
<stop offset="1" stop-color="#ABE605"/>
</linearGradient>
</defs>
</svg>
