<svg width="42" height="19" viewBox="0 0 42 19" fill="none" xmlns="http://www.w3.org/2000/svg">
<path d="M6.02344 4.63281L2.25781 15H0.71875L5.05469 3.625H6.04688L6.02344 4.63281ZM9.17969 15L5.40625 4.63281L5.38281 3.625H6.375L10.7266 15H9.17969ZM8.98438 10.7891V12.0234H2.59375V10.7891H8.98438ZM18.6172 3.625H20.1172V11.3203C20.1172 12.1745 19.9271 12.8854 19.5469 13.4531C19.1667 14.0208 18.6615 14.4479 18.0312 14.7344C17.4062 15.0156 16.7266 15.1562 15.9922 15.1562C15.2214 15.1562 14.5234 15.0156 13.8984 14.7344C13.2786 14.4479 12.7865 14.0208 12.4219 13.4531C12.0625 12.8854 11.8828 12.1745 11.8828 11.3203V3.625H13.375V11.3203C13.375 11.9141 13.4844 12.4036 13.7031 12.7891C13.9219 13.1745 14.2266 13.4609 14.6172 13.6484C15.013 13.8359 15.4714 13.9297 15.9922 13.9297C16.5182 13.9297 16.9766 13.8359 17.3672 13.6484C17.763 13.4609 18.0703 13.1745 18.2891 12.7891C18.5078 12.4036 18.6172 11.9141 18.6172 11.3203V3.625ZM26.6875 3.625V15H25.2031V3.625H26.6875ZM30.3438 3.625V4.85938H21.5547V3.625H30.3438ZM40.5703 8.95312V9.67188C40.5703 10.526 40.4635 11.2917 40.25 11.9688C40.0365 12.6458 39.7292 13.2214 39.3281 13.6953C38.9271 14.1693 38.4453 14.5312 37.8828 14.7812C37.3255 15.0312 36.7005 15.1562 36.0078 15.1562C35.3359 15.1562 34.7188 15.0312 34.1562 14.7812C33.599 14.5312 33.1146 14.1693 32.7031 13.6953C32.2969 13.2214 31.9818 12.6458 31.7578 11.9688C31.5339 11.2917 31.4219 10.526 31.4219 9.67188V8.95312C31.4219 8.09896 31.5312 7.33594 31.75 6.66406C31.974 5.98698 32.2891 5.41146 32.6953 4.9375C33.1016 4.45833 33.5833 4.09375 34.1406 3.84375C34.7031 3.59375 35.3203 3.46875 35.9922 3.46875C36.6849 3.46875 37.3099 3.59375 37.8672 3.84375C38.4297 4.09375 38.9115 4.45833 39.3125 4.9375C39.7188 5.41146 40.0286 5.98698 40.2422 6.66406C40.4609 7.33594 40.5703 8.09896 40.5703 8.95312ZM39.0781 9.67188V8.9375C39.0781 8.26042 39.0078 7.66146 38.8672 7.14062C38.7318 6.61979 38.5312 6.18229 38.2656 5.82812C38 5.47396 37.6745 5.20573 37.2891 5.02344C36.9089 4.84115 36.4766 4.75 35.9922 4.75C35.5234 4.75 35.099 4.84115 34.7188 5.02344C34.3438 5.20573 34.0208 5.47396 33.75 5.82812C33.4844 6.18229 33.2786 6.61979 33.1328 7.14062C32.987 7.66146 32.9141 8.26042 32.9141 8.9375V9.67188C32.9141 10.3542 32.987 10.9583 33.1328 11.4844C33.2786 12.0052 33.487 12.4453 33.7578 12.8047C34.0339 13.1589 34.3594 13.4271 34.7344 13.6094C35.1146 13.7917 35.5391 13.8828 36.0078 13.8828C36.4974 13.8828 36.9323 13.7917 37.3125 13.6094C37.6927 13.4271 38.013 13.1589 38.2734 12.8047C38.5391 12.4453 38.7396 12.0052 38.875 11.4844C39.0104 10.9583 39.0781 10.3542 39.0781 9.67188Z" fill="url(#paint0_linear_71_538)"/>
<defs>
<linearGradient id="paint0_linear_71_538" x1="21" y1="0" x2="21" y2="19" gradientUnits="userSpaceOnUse">
<stop stop-color="#27D71C"/>
<stop offset="1" stop-color="#ABE605"/>
</linearGradient>
</defs>
</svg>
