<svg width="29" height="29" viewBox="0 0 29 29" fill="none" xmlns="http://www.w3.org/2000/svg">
<g id="Property 1=light">
<path id="Vector" fill-rule="evenodd" clip-rule="evenodd" d="M18.7878 15.8544C18.7878 18.1812 20.6741 20.0674 23.0008 20.0674C25.3276 20.0674 27.2138 18.1812 27.2138 15.8544H18.7878Z" stroke="white" stroke-width="2.5" stroke-linejoin="round"/>
<circle id="Vector_2" cx="14.2237" cy="13.7479" r="2.1065" fill="white"/>
<path id="Vector_3" fill-rule="evenodd" clip-rule="evenodd" d="M13.6307 18.7396C11.4178 19.4586 10.2068 21.8354 10.9258 24.0482C11.6448 26.2611 14.0216 27.4722 16.2345 26.7531L13.6307 18.7396Z" stroke="white" stroke-width="2.5" stroke-linejoin="round"/>
<path id="Vector_4" fill-rule="evenodd" clip-rule="evenodd" d="M9.29309 14.7264C7.92545 12.844 5.29077 12.4268 3.40838 13.7944C1.52598 15.162 1.10869 17.7967 2.47633 19.6791L9.29309 14.7264Z" stroke="white" stroke-width="2.5" stroke-linejoin="round"/>
<path id="Vector_5" fill-rule="evenodd" clip-rule="evenodd" d="M11.7694 9.36105C13.1371 7.47866 12.7198 4.84398 10.8374 3.47634C8.95496 2.1087 6.32029 2.52599 4.95265 4.40839L11.7694 9.36105Z" stroke="white" stroke-width="2.5" stroke-linejoin="round"/>
<path id="Vector_6" fill-rule="evenodd" clip-rule="evenodd" d="M17.6375 10.0582C19.8503 10.7772 22.2271 9.56618 22.9461 7.35329C23.6651 5.1404 22.4541 2.76362 20.2412 2.04461L17.6375 10.0582Z" stroke="white" stroke-width="2.5" stroke-linejoin="round"/>
</g>
</svg>
