<svg width="22" height="19" viewBox="0 0 22 19" fill="none" xmlns="http://www.w3.org/2000/svg">
<g id=" icon &#34;humidity&#34;">
<g id="Group">
<path id="Vector" d="M13.8853 0.269385C15.711 -0.150038 17.976 -0.129072 21.0583 0.686588C21.5895 0.827139 21.9123 1.3969 21.7796 1.95916C21.6468 2.52143 21.1087 2.8633 20.5775 2.72275C17.7118 1.96443 15.7638 1.98552 14.3058 2.32046C12.8433 2.65643 11.792 3.32276 10.6782 4.0433L10.5948 4.09728C9.5212 4.79231 8.33234 5.56196 6.76165 5.83904C5.13249 6.12643 3.20799 5.87235 0.623382 4.77782C0.115064 4.56256 -0.132172 3.95183 0.0711775 3.41371C0.274521 2.8756 0.85145 2.61387 1.35977 2.82915C3.73174 3.83362 5.27684 3.9732 6.43576 3.76877C7.61236 3.56122 8.50937 2.98665 9.64433 2.25242C10.761 1.53001 12.064 0.687766 13.8853 0.269385Z" fill="white"/>
<path id="Vector_2" d="M21.0583 4.88422C17.976 4.06857 15.711 4.0476 13.8853 4.46702C12.064 4.88541 10.761 5.72764 9.64433 6.45006C8.50937 7.18428 7.61236 7.75886 6.43576 7.96641C5.27684 8.1708 3.73174 8.03121 1.35977 7.02678C0.85145 6.81152 0.274521 7.07323 0.0711775 7.61138C-0.132172 8.14945 0.115064 8.76021 0.623382 8.97544C3.20799 10.07 5.13249 10.324 6.76165 10.0366C8.33234 9.75956 9.5212 8.98995 10.5948 8.29493L10.6782 8.24097C11.792 7.52038 12.8433 6.85406 14.3058 6.5181C15.7638 6.18316 17.7118 6.16208 20.5775 6.92038C21.1087 7.06093 21.6468 6.71907 21.7796 6.15679C21.9123 5.59453 21.5895 5.02477 21.0583 4.88422Z" fill="white"/>
<path id="Vector_3" fill-rule="evenodd" clip-rule="evenodd" d="M17.8439 7.39162C17.4997 7.39162 17.2129 7.58023 17.0127 7.86562C16.9424 7.9664 16.78 8.20225 16.5641 8.53235C16.2771 8.97133 15.8928 9.58135 15.5069 10.2623C15.1228 10.9398 14.7266 11.7061 14.4235 12.4548C14.1332 13.1718 13.8776 13.9503 13.8786 14.7396C13.8793 14.9611 13.9043 15.1837 13.9386 15.4018C13.9959 15.7658 14.1123 16.2669 14.3549 16.7808C14.5996 17.2989 14.9822 17.8488 15.5746 18.2669C16.1733 18.6893 16.9269 18.9351 17.8439 18.9351C18.7608 18.9351 19.5145 18.6893 20.113 18.2669C20.7055 17.8488 21.0881 17.2989 21.3328 16.7809C21.5755 16.2669 21.6919 15.7658 21.7492 15.4019C21.7836 15.1835 21.8089 14.9603 21.8092 14.7385C21.8095 13.9493 21.5546 13.1719 21.2643 12.4548C20.9612 11.7061 20.565 10.9398 20.1809 10.2623C19.795 9.58135 19.4107 8.97133 19.1236 8.53235C18.9078 8.20225 18.7452 7.9664 18.675 7.86562C18.4748 7.58023 18.188 7.39162 17.8439 7.39162ZM19.442 13.2816C19.1875 12.6529 18.8403 11.9762 18.4808 11.3421C18.2622 10.9565 18.043 10.5933 17.8439 10.2748C17.6447 10.5933 17.4255 10.9565 17.2069 11.3421C16.8476 11.9762 16.5003 12.6529 16.2458 13.2816L16.2314 13.3171C16.0562 13.7494 15.8492 14.2604 15.8615 14.7379C15.8734 15.1156 15.9692 15.5054 16.1284 15.8422C16.2553 16.1113 16.4304 16.3484 16.6744 16.5206C16.9122 16.6884 17.2738 16.8362 17.8439 16.8362C18.4139 16.8362 18.7755 16.6884 19.0133 16.5206C19.2573 16.3484 19.4324 16.1112 19.5595 15.8422C19.7186 15.5054 19.8144 15.1156 19.8263 14.7378C19.8387 14.2605 19.6316 13.7495 19.4565 13.3174L19.442 13.2816Z" fill="white"/>
<path id="Vector_4" d="M13.0159 8.97396C13.7696 8.71508 14.3474 9.54749 13.993 10.2977C13.8311 10.6406 13.649 10.9323 13.287 11.068C12.3184 11.4311 11.516 11.9425 10.6782 12.4844L10.5948 12.5384C9.52121 13.2334 8.33235 14.003 6.76166 14.2801C5.1325 14.5675 3.20801 14.3134 0.623396 13.2189C0.115078 13.0037 -0.132154 12.3929 0.0711911 11.8548C0.274544 11.3167 0.851463 11.0549 1.35979 11.2703C3.73175 12.2747 5.27686 12.4143 6.43578 12.2099C7.61238 12.0023 8.50939 11.4277 9.64433 10.6935C10.7229 9.99572 11.8329 9.38033 13.0159 8.97396Z" fill="white"/>
</g>
</g>
</svg>
